Jump_normalized_Motion_pl14
version=1
nRows=14
nColumns=43
inDegrees=yes
endheader
time		pelvis_tilt		pelvis_list		pelvis_rotation		pelvis_tx		pelvis_ty		pelvis_tz		hip_flexion_r		hip_adduction_r		hip_rotation_r		knee_angle_r		ankle_angle_r		subtalar_angle_r		mtp_angle_r		hip_flexion_l		hip_adduction_l		hip_rotation_l		knee_angle_l		ankle_angle_l		subtalar_angle_l		mtp_angle_l		lumbar_extension		lumbar_bending		lumbar_rotation		neck_flexion		neck_lateral_bending		neck_rotation		arm_flex_r		arm_add_r		arm_rot_r		elbow_flex_r		pro_sup_r		wrist_flex_r		wrist_dev_r		hand_finger_flex_r		arm_flex_l		arm_add_l		arm_rot_l		elbow_flex_l		pro_sup_l		wrist_flex_l		wrist_dev_l		hand_finger_flex_l		
0.760000		1.709978		-11.294157		84.850740		0.046466		1.768589		1.795266		75.857880		-3.774887		1.126619		-146.939009		26.484406		0.708643		13.750107		74.306271		-9.266202		11.321167		-148.227053		19.412014		19.859588		26.354258		-49.781964		-1.103691		3.841839		39.537077		1.812036		-1.020917		102.220624		-25.962923		18.546068		77.308557		99.517691		2.514576		-0.960976		-32.447646		103.286202		-19.073729		27.388958		56.034989		104.600010		-9.043745		4.066438		-0.428302		
0.764242		1.693499		-11.725784		84.577844		0.046509		1.769391		1.789556		75.336466		-3.587011		1.063366		-146.661530		26.519126		0.421875		14.362090		74.031373		-9.478198		11.149207		-147.965534		18.650778		19.903042		27.144234		-49.071823		-1.159059		4.258005		39.316838		1.702649		-1.169897		103.806075		-25.798476		19.154429		76.908505		102.621049		0.381302		-1.480703		-27.399755		103.919771		-18.694236		27.169412		56.038988		104.566895		-9.203602		4.120637		-0.622108		
0.768485		1.636954		-12.167235		84.375642		0.046401		1.770196		1.783736		74.845221		-3.493418		1.090770		-146.383326		26.491124		0.266643		14.619098		73.743430		-9.585928		10.970263		-147.680917		18.097932		19.985346		27.463465		-48.338975		-1.186957		4.465739		39.164294		1.781500		-1.192396		104.994282		-25.374856		19.487644		76.795147		103.596558		-0.516832		-1.432265		-25.469172		104.509727		-18.490925		26.986109		56.113041		104.568150		-9.308808		4.092680		-0.727607		
0.772727		1.553066		-12.382977		84.001442		0.046406		1.771606		1.777540		74.086956		-3.270001		1.194364		-146.046027		26.422196		-0.036458		14.833889		73.192973		-9.873248		10.614505		-147.339468		17.019515		19.987027		27.696359		-47.848453		-1.281360		4.848820		38.917827		1.374463		-1.086290		106.322123		-25.200014		20.506845		76.990475		103.782706		-1.238414		-0.515541		-25.798426		104.996847		-18.333378		26.803823		56.214567		104.668329		-9.516148		3.973079		-0.924522		
0.776970		1.461270		-12.675135		83.762414		0.046293		1.772882		1.771226		73.391894		-3.184728		1.294501		-145.702567		26.301832		-0.316214		15.176460		72.774891		-9.981805		10.292913		-146.991974		16.056813		19.822119		28.155810		-47.255508		-1.324993		5.080837		38.694302		1.227345		-1.055299		107.423703		-24.915661		21.197058		77.200151		103.632175		-1.502334		0.396529		-26.211204		105.464567		-18.172739		26.600739		56.311108		104.830273		-9.623778		3.885792		-1.178498		
0.781212		1.343893		-13.024733		83.565597		0.046178		1.773932		1.764798		72.780107		-3.180387		1.401050		-145.378041		26.208820		-0.511138		15.384342		72.458074		-10.026351		9.973371		-146.668305		15.077561		19.703137		28.366228		-46.548489		-1.378172		5.231011		38.318160		1.282229		-1.082924		108.440336		-24.600136		21.727739		77.191729		103.757651		-1.453660		0.836986		-26.383779		105.869504		-18.022969		26.411989		56.404263		104.959848		-9.706665		3.870781		-1.359213		
0.785455		1.237545		-13.402602		83.423134		0.046153		1.775161		1.758145		72.166620		-3.185681		1.486003		-145.001326		26.039927		-0.639817		15.518436		72.114729		-10.025632		9.619515		-146.309128		14.360705		19.441584		28.475421		-45.830868		-1.398903		5.415046		38.073518		1.174945		-1.067490		109.279162		-24.317086		22.018053		77.304411		104.105406		-1.411610		1.070188		-26.444622		106.233307		-17.864159		26.255752		56.543500		105.091947		-9.773054		3.863661		-1.507523		
0.789697		1.076035		-13.658883		83.214465		0.046097		1.776671		1.751287		71.444694		-3.182055		1.660845		-144.602669		25.760055		-0.890778		15.823496		71.659958		-10.035901		9.025456		-145.923218		13.258727		18.614943		28.731217		-45.241258		-1.462841		5.635002		37.832281		0.867845		-1.068087		110.269070		-24.054105		22.513000		77.326883		105.037461		-1.339015		1.548067		-26.493201		106.487594		-17.679957		25.961608		56.698094		105.374056		-9.860039		3.885098		-1.815180		
0.793939		0.777519		-13.767074		83.001544		0.045865		1.778286		1.744186		70.613387		-3.309213		2.037472		-144.247572		25.376786		-1.096107		16.624543		71.115750		-9.935794		8.141677		-145.506414		11.611044		17.155189		29.344196		-44.733031		-1.631162		5.662924		37.308683		0.829327		-1.211121		111.164967		-23.619774		22.831187		77.160005		106.828163		-0.899973		2.099181		-26.097370		106.611836		-17.454357		25.422427		56.830960		105.765348		-9.576199		3.973846		-2.386701		
0.798182		0.595049		-14.007768		82.861296		0.045965		1.779611		1.736991		69.884637		-3.381571		2.240251		-143.859534		25.061049		-1.156058		16.805131		70.796543		-9.881965		7.834325		-145.085556		10.126466		17.076441		29.345467		-44.051288		-1.733819		5.756065		36.732121		0.824139		-1.276490		111.775621		-23.290509		23.048832		77.081801		107.186206		-0.702861		2.316568		-25.913462		106.769513		-17.251190		25.211089		56.871119		105.766559		-9.531911		4.039029		-2.547183		
0.802424		0.289418		-14.011658		82.606222		0.046052		1.781679		1.729440		68.909005		-3.444596		2.656822		-143.416916		24.598175		-1.255536		17.744836		70.163723		-9.832838		7.086123		-144.511767		8.397814		16.032202		29.951709		-43.669096		-1.989943		5.872148		36.384247		0.658498		-1.421193		112.337284		-22.924503		23.090208		77.215005		108.314177		-0.371082		2.958453		-25.247875		106.871628		-16.994530		24.777360		56.963858		105.801713		-9.108611		4.048961		-3.109438		
0.806667		0.122409		-14.196706		82.495606		0.046197		1.782976		1.721873		68.118652		-3.500981		2.896770		-143.017674		24.178463		-1.237915		17.925893		69.952955		-9.790338		6.942445		-144.011851		6.563329		16.277789		29.879517		-42.986084		-2.087467		5.912735		35.677300		0.747248		-1.500075		112.688487		-22.521123		23.202032		77.065960		108.360148		-0.245305		3.111964		-25.058768		106.937122		-16.808410		24.615772		56.920308		105.781420		-9.086182		4.119656		-3.270161		
0.810909		-0.023772		-14.321284		82.357749		0.046353		1.784437		1.714149		67.264546		-3.514287		3.153578		-142.592540		23.703834		-1.239546		18.128542		69.727984		-9.774001		6.763160		-143.431525		4.523703		16.361483		29.715961		-42.384994		-2.195942		5.973726		35.059384		0.803536		-1.592595		113.018517		-22.112168		23.300639		76.930928		108.361068		-0.079850		3.335345		-24.825849		106.973558		-16.629927		24.418365		56.887311		105.758446		-9.052873		4.167741		-3.420188		
0.815152		-0.152804		-14.433098		82.253246		0.046515		1.785900		1.706350		66.407823		-3.510021		3.403559		-142.152809		23.164517		-1.234811		18.370943		69.565531		-9.752383		6.577198		-142.803811		2.280226		16.238019		29.415780		-41.793208		-2.282763		6.006456		34.412509		0.891799		-1.688816		113.303349		-21.675096		23.376799		76.724604		108.309959		0.110843		3.567752		-24.550901		106.989640		-16.454640		24.214368		56.822428		105.760064		-9.008185		4.217868		-3.578865		
